<svg id="b85d55a3-79b3-48f3-95e9-cf5fef1ce915" data-name="Calque 1" xmlns="http://www.w3.org/2000/svg" viewBox="0 0 541.57 398.61"><title>logo</title><path d="M648.4,251.3h-3.5c-1.3,0-1.4-.1-1.7-1.4-.4-1.9-.7-3.8-1.1-5.7a96,96,0,0,0-7.8-22.2c-6.8-13-17.4-21-31.6-24.5a76.89,76.89,0,0,0-15.9-2,42.7,42.7,0,0,0-15.5,2c-8.1,2.8-14.5,7.5-18.7,15.1a28,28,0,0,0-3.3,14.2c.2,9.2,4.2,16.6,10.9,22.7A105.39,105.39,0,0,0,576.1,261c13.3,8,26.6,15.9,39.9,23.9a226.93,226.93,0,0,1,20.9,13.6,56.84,56.84,0,0,1,10,9.6,42,42,0,0,1,9.4,23.4,60.15,60.15,0,0,1-3.8,26.9c-5.4,13.3-15,22.4-28.1,27.9a68.81,68.81,0,0,1-20.1,4.9,98.42,98.42,0,0,1-18.8.2,104.45,104.45,0,0,1-32.1-7.1,67.92,67.92,0,0,1-15.8-8.8,37,37,0,0,1-6.9-6.8,20.78,20.78,0,0,1-4.7-13.3v-31a1.06,1.06,0,0,1,1.2-1.2h2.3c1.4,0,1.5.1,1.9,1.5.6,2.8,1.2,5.6,1.9,8.4a86.59,86.59,0,0,0,7.7,20.4c7,12.7,17.6,20.6,31.6,24.2a62.19,62.19,0,0,0,14.9,2c1.5,0,3,.3,4.5.2,8.3-.2,16.3-1.7,23.6-5.9,6.6-3.8,11.5-9.1,13.9-16.5a30,30,0,0,0,1.1-11.9c-.8-9.7-5.6-17.3-12.7-23.6a126.52,126.52,0,0,0-19-13.6c-13-7.8-26.1-15.5-39.2-23.3a112.51,112.51,0,0,1-17.3-12.6c-6.8-6.2-12-13.4-14.5-22.4a60,60,0,0,1-1.8-21.5,46.5,46.5,0,0,1,7.4-21.7,49.13,49.13,0,0,1,23.4-18.8,59.37,59.37,0,0,1,18.5-4.3,108.74,108.74,0,0,1,15.1-.2c13.2.8,26,3.5,37.9,9.7a46.58,46.58,0,0,1,14.9,11.6,21.91,21.91,0,0,1,5.4,14.9c-.1,9.7-.1,19.4-.1,29C648.6,249.6,648.4,250.4,648.4,251.3Z" transform="translate(-114.93 -100.09)" fill="#fff"/><path d="M326.2,386.4c.3-.8.5-1.5.8-2.1l27-63.9,15.9-37.5c1.2-2.9,2.3-5.9,3.6-8.9,2-4.6,4.1-9.2,6-13.8,9.6-22.7,19.3-45.4,28.9-68,.3-.7.7-1.5,1-2.2a1.71,1.71,0,0,1,1.7-1.2h6.3a1.75,1.75,0,0,1,1.8,1.3l3,7.2c11.4,27.6,22.7,55.3,34.1,82.9,9.6,23.3,19.2,46.7,28.9,70,2,4.7,4.3,9.3,6.7,13.9a31.46,31.46,0,0,0,12.3,13,32.84,32.84,0,0,0,11.4,3.5c1.9.3,2,.4,2,2.2a22.55,22.55,0,0,0,0,2.6,1.46,1.46,0,0,1-1.3,1.6c-1.8.3-3.6.7-5.4.9a44.94,44.94,0,0,1-9.7,0,54.8,54.8,0,0,1-12.7-2.4,48.67,48.67,0,0,1-19.9-13.2c-6.1-6.4-10.2-14-13.4-22.2-2.2-5.6-4.4-11.3-6.6-16.9l-.9-2.1a1.84,1.84,0,0,0-1.9-1.3c-1.3,0-2.6-.1-3.9-.1-23.8-.1-47.7-.1-71.5-.1-1.6,0-3.2.2-4.9.1a2.73,2.73,0,0,0-3,1.9c-1.7,4.2-3.6,8.4-5.3,12.5-5.7,13.4-11.4,26.9-17,40.3a6.12,6.12,0,0,0-.5,1.2,1.42,1.42,0,0,1-1.5,1h-11A5.76,5.76,0,0,1,326.2,386.4Zm77.2-68.5h0c6.2,0,12.4.1,18.7,0,5.1,0,10.2-.2,15.2-.3,1.8,0,2.4-.9,2.1-2.6-.1-.4-.2-.7-.3-1.1-.6-1.5-1.1-3-1.8-4.5-7.4-17.9-14.7-35.7-22.1-53.6-2.2-5.2-4.4-10.5-6.6-15.7a4.38,4.38,0,0,0-1.7-2.3c-.9-.6-1.8-1.1-2.8-1.7-.8-.5-1.1-.4-1.6.4-.3.6-.6,1.1-.9,1.7-3.5,7.9-6.9,15.7-10.3,23.6-7.6,17.8-15.2,35.5-22.9,53.3a5.78,5.78,0,0,0-.5,1.4.88.88,0,0,0,.8,1.1h.8c4.9.1,9.7.2,14.6.2C390.6,317.9,397,317.9,403.4,317.9Z" transform="translate(-114.93 -100.09)" fill="#fff"/><path d="M437.9,114.2C374,98.8,313,105.9,255.1,137c-39.7,21.3-71.2,51.5-94.7,89.9a251.78,251.78,0,0,0-31.2,184.2,256.29,256.29,0,0,0,37.2,87.6c-.2-.2-.4-.3-.6-.5a4.23,4.23,0,0,1-.5-.7,258.9,258.9,0,0,1-36.3-69,255.2,255.2,0,0,1-11-44A251.68,251.68,0,0,1,140.9,234,240.16,240.16,0,0,1,281.4,112a224.84,224.84,0,0,1,38.1-9.1c6.2-.9,12.5-1.5,18.8-2.1a221.23,221.23,0,0,1,28.2-.5c6,.2,12,.9,17.9,1.5a223.88,223.88,0,0,1,27,4.6q12.75,3,25.2,7.2C437,113.8,437.4,114,437.9,114.2Z" transform="translate(-114.93 -100.09)" fill="#fff"/><path d="M250.7,234.8a14.63,14.63,0,0,1,1.3.9l7.8,6.6c1.1,1,1.1,1.1.1,2.2-23.8,24.6-41.7,53-54.9,84.4-1.1,2.6-1.1,2.3,1,3.8,13.5,9.5,27.4,18.4,42.2,25.7,4.3,2.1,8.9,3.9,13.4,5.8,1.8.8,1.9.8,1.3,2.6-.8,2.7-1.7,5.5-2.5,8.2-.5,1.5-.6,1.6-2.2,1.1a179.84,179.84,0,0,1-18.7-7.8,182,182,0,0,1-43.6-29c-1.9-1.7-3.6-3.6-5.5-5.2-1.5-1.3-1.6-2.5-1-4.3,2-5.7,4.2-11.4,6.7-16.9a258,258,0,0,1,38.7-60.6c4.7-5.5,9.7-10.8,14.6-16.1A4.36,4.36,0,0,1,250.7,234.8Z" transform="translate(-114.93 -100.09)" fill="#fff"/><path d="M332.4,392.7a10.84,10.84,0,0,1-1.9.8,37.65,37.65,0,0,1-10.5,1.6,90.2,90.2,0,0,1-22.6-2.7,163.56,163.56,0,0,1-22.8-7.3,10.37,10.37,0,0,1-1-.4,1,1,0,0,1-.6-1.2c.1-.4.2-.9.3-1.3a474.19,474.19,0,0,1,23.6-70.8A234.17,234.17,0,0,1,314.1,278c1.1-1.7,2.2-3.4,3.3-5a1.44,1.44,0,0,1,1.9-.8c3.3,1.2,6.7,2.4,10.1,3.6a5.76,5.76,0,0,0,.9.5c-.4.9-.7,1.7-1.1,2.5-5.1,11.2-10.3,22.3-15.2,33.5q-9.6,21.9-17,44.5a174.15,174.15,0,0,0-5.8,22.6c-.3,1.5-.2,1.7,1.3,2.2,12.6,3.8,25.1,7.6,38,10.3.7.1,1.3.3,2,.4C332.4,392.3,332.4,392.5,332.4,392.7Z" transform="translate(-114.93 -100.09)" fill="#fff"/><path d="M279.8,225.9a58.13,58.13,0,0,0,6.6,4.8c2.2,1.5,4.5,3,6.8,4.4s4.7,2.8,7.2,4.1,4.8,2.5,7.2,3.6,4.9,2.1,7.5,3.2c-2.1,3.7-4,7.2-6,10.9-.5-.2-.9-.3-1.3-.5-12.9-6.7-25.5-13.7-37.4-22.1a68.65,68.65,0,0,1-9.3-7.8l-.3-.3c-1-1-1-1.3-.1-2.3a18,18,0,0,1,1.9-2,180.51,180.51,0,0,1,24.6-20.8c18.7-13.7,38.6-25.6,59.1-36.6,2.8-1.5,5.5-3,8.3-4.4,1.4-.7,1.6-.7,2.5.7.5.8,1,1.5,1.5,2.3.8,1.3.8,1.5-.6,2.2-2.4,1.3-4.8,2.5-7.2,3.8a268.41,268.41,0,0,0-65.4,50.6c-1.5,1.6-2.9,3.2-4.3,4.8C280.6,224.7,280.3,225.2,279.8,225.9Z" transform="translate(-114.93 -100.09)" fill="#fff"/><path d="M390.3,179.1a14,14,0,0,1-1,1.6c-8.8,12.5-17.4,25.2-25.6,38.1-7,11-13.9,22.2-19.9,33.8-.9,1.7-1.7,3.5-2.5,5.3-.6,1.2-.5,1.4.7,2a184.57,184.57,0,0,0,27.5,12.6c.5.2.9.3,1.4.5.1.1.3.2.5.4-.8,1.6-1.6,3.3-2.3,4.9-.3.6-.8.6-1.4.6a42,42,0,0,1-10.6-1.1,79.23,79.23,0,0,1-21-8.8c-2.9-1.7-5.7-3.5-8.5-5.3-1.4-.9-1.4-1-.8-2.5a145.15,145.15,0,0,1,7.6-15.9,350.68,350.68,0,0,1,28.5-43.9c5.8-7.8,11.9-15.4,17.9-23a8.12,8.12,0,0,1,.9-1,3.49,3.49,0,0,1,1.3-.5c2.3.6,4.6,1.2,6.9,1.9C389.9,178.7,390,178.9,390.3,179.1Z" transform="translate(-114.93 -100.09)" fill="#fff"/><path d="M446.1,173.4l-2.9.6a92,92,0,0,1-18.9,1.3c-13.9-.5-27.3-3.1-40.1-8.8A56.19,56.19,0,0,1,367.9,156a23.38,23.38,0,0,1-6.1-8.5,14.27,14.27,0,0,1,2.2-15.4,28.62,28.62,0,0,1,9.9-7.4,60.14,60.14,0,0,1,17-4.9,92.65,92.65,0,0,1,19.7-.9,96.91,96.91,0,0,1,18.6,2.6c.2,0,.4.2.5.5a14.92,14.92,0,0,0-2.1-.2c-.7-.1-1.4-.1-2.1-.2a116.2,116.2,0,0,0-17.7,0,74.94,74.94,0,0,0-15.6,2.7,42.2,42.2,0,0,0-10.7,4.6,20.69,20.69,0,0,0-5,4.3c-3.6,4.4-4.1,9.3-1.3,14.3a24.38,24.38,0,0,0,5.2,6.4,60.76,60.76,0,0,0,17.8,10.7,109.75,109.75,0,0,0,25.1,6.8,122.93,122.93,0,0,0,21,1.5H446A1.34,1.34,0,0,1,446.1,173.4Z" transform="translate(-114.93 -100.09)" fill="#fff"/><path d="M171.7,418.3a15,15,0,0,1-.2-2.2,158.69,158.69,0,0,1,2.4-30.8,283.85,283.85,0,0,1,8.9-37.5c.3-1,.7-1.9,1.1-3.1.6.4,1.1.7,1.5,1,2.3,1.9,4.5,3.7,6.7,5.6,1.3,1.1,1.4,1.2.7,2.7-8.8,19-15,38.8-19.6,59.2-.3,1.3-.5,2.6-.8,4-.1.3-.2.7-.3,1A.76.76,0,0,1,171.7,418.3Z" transform="translate(-114.93 -100.09)" fill="#fff"/><path d="M177.5,319.8a7.57,7.57,0,0,1-1-1.4c-5.5-8.8-9.7-18.2-11.6-28.5-1.8-9.9-1.4-19.6,2-29a32.26,32.26,0,0,1,1.5-3.4c.6.8.3,1.4.3,2-.1,3-.3,6-.2,9.1a52.28,52.28,0,0,0,5.6,22.9,36.8,36.8,0,0,0,8.2,11,2.5,2.5,0,0,1,.7,3.2c-1.6,4.1-3.1,8.2-4.6,12.3A10,10,0,0,0,177.5,319.8Z" transform="translate(-114.93 -100.09)" fill="#fff"/><path d="M259.7,205c-3.5,3-7,5.8-10.5,8.8a8.34,8.34,0,0,1-.8-1.2c-3.6-7.6-5.9-15.4-5.5-23.9a36.31,36.31,0,0,1,9.3-23.3A6.62,6.62,0,0,1,254,164a3.18,3.18,0,0,1-.3.9c-4.2,8.9-4.1,18-.9,27.1a44.71,44.71,0,0,0,6,11.7C259.1,204.1,259.4,204.6,259.7,205Z" transform="translate(-114.93 -100.09)" fill="#fff"/></svg>