<?xml version="1.0" encoding="utf-8"?>
<!-- Generator: Adobe Illustrator 22.1.0, SVG Export Plug-In . SVG Version: 6.00 Build 0)  -->
<svg version="1.1" id="Calque_1" xmlns="http://www.w3.org/2000/svg" xmlns:xlink="http://www.w3.org/1999/xlink" x="0px" y="0px"
	 viewBox="0 0 577 422" style="enable-background:new 0 0 577 422;" xml:space="preserve">
<style type="text/css">
	.st0{fill:#FF0000;}
</style>
<g>
	<path class="st0" d="M554.6,162c-1.3,0-2.4,0-3.5,0c-1.3,0-1.4-0.1-1.7-1.4c-0.4-1.9-0.7-3.8-1.1-5.7c-1.8-7.7-4.2-15.2-7.8-22.2
		c-6.8-13-17.4-21-31.6-24.5c-5.2-1.3-10.5-1.8-15.9-2c-5.3-0.2-10.5,0.3-15.5,2c-8.1,2.8-14.5,7.5-18.7,15.1
		c-2.4,4.4-3.4,9.2-3.3,14.2c0.2,9.2,4.2,16.6,10.9,22.7c4.9,4.4,10.3,8.1,15.9,11.5c13.3,8,26.6,15.9,40,23.9
		c7.2,4.3,14.3,8.6,20.9,13.6c3.7,2.8,7.1,6,10,9.6c5.5,6.9,8.7,14.6,9.4,23.4c0.7,9.3-0.4,18.2-3.8,26.9
		c-5.4,13.3-15,22.4-28.1,27.9c-6.4,2.7-13.1,4.2-20.1,4.9c-6.3,0.7-12.5,0.7-18.8,0.2c-11-0.8-21.8-2.9-32.1-7.1
		c-5.6-2.3-11-5.1-15.8-8.8c-2.6-2-4.9-4.2-6.9-6.8c-3.1-3.9-4.7-8.3-4.7-13.3c0-10,0-20,0-30v-1c0-0.7,0.5-1.2,1.2-1.2h2.3
		c1.4,0,1.5,0.1,1.9,1.5c0.6,2.8,1.2,5.6,1.9,8.4c1.8,7.1,4.2,14,7.7,20.4c7,12.7,17.6,20.6,31.6,24.2c4.9,1.2,9.8,2,14.9,2
		c1.5,0,3,0.3,4.5,0.2c8.3-0.2,16.3-1.7,23.6-5.9c6.6-3.8,11.5-9.1,13.9-16.5c1.3-3.9,1.4-7.9,1.1-11.9c-0.8-9.7-5.6-17.3-12.7-23.6
		c-5.9-5.2-12.3-9.6-19-13.6c-13-7.8-26.1-15.5-39.3-23.3c-6.1-3.7-12-7.8-17.3-12.6c-6.8-6.2-12-13.4-14.5-22.4
		c-2-7.1-2.4-14.2-1.8-21.5c0.7-7.9,3.1-15.1,7.4-21.7c5.8-8.8,13.7-14.9,23.4-18.8c5.9-2.4,12.2-3.9,18.5-4.3
		c5-0.3,10.1-0.6,15.1-0.2c13.2,0.8,26,3.5,38,9.7c5.7,2.9,10.7,6.6,14.9,11.6c3.6,4.3,5.5,9.2,5.4,14.9c-0.1,9.7-0.1,19.4-0.1,29
		C554.8,160.3,554.6,161.1,554.6,162z"/>
	<path class="st0" d="M232.1,297.8c0.3-0.8,0.5-1.5,0.8-2.1c9-21.3,18-42.6,27-64c5.3-12.5,10.6-25,15.9-37.5
		c1.2-2.9,2.3-5.9,3.6-8.9c2-4.6,4.1-9.2,6-13.8c9.6-22.7,19.3-45.4,28.9-68.1c0.3-0.7,0.7-1.5,1-2.2c0.4-1.1,1.4-1.4,2.6-1
		c1.4,0,2.7,0,4.1,0c1.9-0.5,2.7,0,3.1,1.1c1,2.4,2,4.8,3,7.2c11.4,27.6,22.7,55.4,34.1,83c9.6,23.3,19.2,46.7,28.9,70.1
		c2,4.7,4.3,9.3,6.7,13.9c2.9,5.5,6.9,9.9,12.3,13c3.6,2,7.4,2.9,11.4,3.5c1.9,0.3,2,0.4,2,2.2c0,0.9-0.1,1.7,0,2.6
		c0,0.9-0.4,1.4-1.3,1.6c-1.8,0.3-3.6,0.7-5.4,0.9c-3.2,0.3-6.5,0.4-9.7,0c-4.3-0.4-8.6-1-12.7-2.4c-7.8-2.6-14.3-7.3-19.9-13.2
		c-6.1-6.4-10.2-14-13.4-22.2c-2.2-5.6-4.4-11.3-6.6-16.9c-0.3-0.7-0.6-1.4-0.9-2.1c-0.3-0.9-1-1.3-1.9-1.3c-1.3,0-2.6-0.1-3.9-0.1
		c-23.8-0.1-47.7-0.1-71.6-0.1c-1.6,0-3.2,0.2-4.9,0.1c-1.5-0.1-2.4,0.5-3,1.9c-1.7,4.2-3.6,8.4-5.3,12.5
		c-5.7,13.4-11.4,26.9-17,40.3c-0.2,0.4-0.4,0.8-0.5,1.2c-0.3,0.7-0.7,1-1.5,1c-3.7,0-7.4,0-11,0C232.8,298,232.6,297.9,232.1,297.8
		z M309.4,229.3L309.4,229.3c6.2,0,12.4,0.1,18.7,0c5.1,0,10.2-0.2,15.2-0.3c1.8,0,2.4-0.9,2.1-2.6c-0.1-0.4-0.2-0.7-0.3-1.1
		c-0.6-1.5-1.1-3-1.8-4.5c-7.4-17.9-14.7-35.7-22.1-53.6c-2.2-5.2-4.4-10.5-6.6-15.7c-0.4-0.9-0.8-1.8-1.7-2.3
		c-0.9-0.6-1.8-1.1-2.8-1.7c-0.8-0.5-1.1-0.4-1.6,0.4c-0.3,0.6-0.6,1.1-0.9,1.7c-3.5,7.9-6.9,15.7-10.3,23.6
		c-7.6,17.8-15.2,35.5-22.9,53.3c-0.2,0.4-0.4,0.9-0.5,1.4s0.2,1.1,0.8,1.1c0.3,0,0.5,0,0.8,0c4.9,0.1,9.7,0.2,14.6,0.2
		C296.6,229.3,303,229.3,309.4,229.3z"/>
	<path class="st0" d="M343.9,25.2C280,9.8,219,16.9,161.1,48c-39.7,21.3-71.2,51.5-94.7,89.9c-16.8,27.5-27.9,57.2-33.3,89
		c-5.4,31.9-4.7,63.6,2.1,95.2c6.8,31.5,19.4,60.6,37.2,87.6c-0.2-0.2-0.4-0.3-0.6-0.5c-0.2-0.2-0.3-0.4-0.5-0.7
		c-15.6-21.2-27.7-44.2-36.3-69c-5-14.3-8.6-29-11-44c-2.5-16-3.5-32.1-2.9-48.3c1.4-35.9,9.9-70,25.8-102.2
		c11.1-22.5,25.3-42.7,42.8-60.8c27.5-28.4,60.2-48.7,97.7-61.2c12.4-4.1,25.1-7.2,38.1-9.1c6.2-0.9,12.5-1.5,18.8-2.1
		c9.4-0.9,18.8-0.8,28.2-0.5c6,0.2,12,0.9,17.9,1.5c9.1,1,18.1,2.5,27,4.6c8.5,2,16.9,4.4,25.2,7.2C343,24.8,343.4,25,343.9,25.2z"
		/>
	<path class="st0" d="M156.7,145.8c0.5,0.3,0.9,0.6,1.3,0.9c2.6,2.2,5.2,4.4,7.8,6.6c1.1,1,1.1,1.1,0.1,2.2
		c-23.8,24.6-41.7,53-54.9,84.4c-1.1,2.6-1.1,2.3,1,3.8c13.5,9.5,27.4,18.4,42.2,25.7c4.3,2.1,8.9,3.9,13.4,5.8
		c1.8,0.8,1.9,0.8,1.3,2.6c-0.8,2.7-1.7,5.5-2.5,8.2c-0.5,1.5-0.6,1.6-2.2,1.1c-6.4-2.2-12.6-4.9-18.7-7.8
		c-15.9-7.7-30.5-17.1-43.6-29c-1.9-1.7-3.6-3.6-5.5-5.2c-1.5-1.3-1.6-2.5-1-4.3c2-5.7,4.2-11.4,6.7-16.9
		c10-22.1,23.1-42.2,38.7-60.6c4.7-5.5,9.7-10.8,14.6-16.1C155.7,146.6,156.2,146.2,156.7,145.8z"/>
	<path class="st0" d="M238.4,303.7c-0.6,0.3-1.2,0.6-1.9,0.8c-3.4,1.1-7,1.5-10.5,1.6c-7.7,0.2-15.2-1-22.6-2.7
		c-7.8-1.8-15.4-4.4-22.8-7.3c-0.4-0.1-0.7-0.3-1-0.4c-0.5-0.2-0.7-0.6-0.6-1.2c0.1-0.4,0.2-0.9,0.3-1.3
		c6.1-24.2,13.8-47.9,23.6-70.8c4.9-11.5,10.5-22.8,17.2-33.4c1.1-1.7,2.2-3.4,3.3-5c0.4-0.7,0.9-1.1,1.9-0.8
		c3.3,1.2,6.7,2.4,10.1,3.6c0.2,0.1,0.4,0.3,0.9,0.5c-0.4,0.9-0.7,1.7-1.1,2.5c-5.1,11.2-10.3,22.3-15.2,33.5
		c-6.4,14.6-12.1,29.4-17,44.5c-2.4,7.4-4.4,14.9-5.8,22.6c-0.3,1.5-0.2,1.7,1.3,2.2c12.6,3.8,25.1,7.6,38,10.3
		c0.7,0.1,1.3,0.3,2,0.4C238.4,303.3,238.4,303.5,238.4,303.7z"/>
	<path class="st0" d="M185.8,136.9c2.1,1.9,4.4,3.3,6.6,4.8s4.5,3,6.8,4.4c2.4,1.4,4.7,2.8,7.2,4.1c2.4,1.3,4.8,2.5,7.2,3.6
		c2.4,1.1,4.9,2.1,7.5,3.2c-2.1,3.7-4,7.2-6,10.9c-0.5-0.2-0.9-0.3-1.3-0.5c-12.9-6.7-25.5-13.7-37.4-22.1c-3.3-2.3-6.4-4.9-9.3-7.8
		c-0.1-0.1-0.2-0.2-0.3-0.3c-1-1-1-1.3-0.1-2.3c0.6-0.7,1.2-1.4,1.9-2c7.5-7.8,15.9-14.5,24.6-20.8c18.7-13.7,38.6-25.6,59.1-36.6
		c2.8-1.5,5.5-3,8.3-4.4c1.4-0.7,1.6-0.7,2.5,0.7c0.5,0.8,1,1.5,1.5,2.3c0.8,1.3,0.8,1.5-0.6,2.2c-2.4,1.3-4.8,2.5-7.2,3.8
		c-24.4,13.6-46.3,30.3-65.4,50.6c-1.5,1.6-2.9,3.2-4.3,4.8C186.6,135.7,186.3,136.2,185.8,136.9z"/>
	<path class="st0" d="M296.3,90.1c-0.3,0.5-0.6,1.1-1,1.6c-8.8,12.5-17.4,25.2-25.6,38.1c-7,11-13.9,22.2-19.9,33.8
		c-0.9,1.7-1.7,3.5-2.5,5.3c-0.6,1.2-0.5,1.4,0.7,2c8.9,4.8,17.9,9.3,27.5,12.6c0.5,0.2,0.9,0.3,1.4,0.5c0.1,0.1,0.3,0.2,0.5,0.4
		c-0.8,1.6-1.6,3.3-2.3,4.9c-0.3,0.6-0.8,0.6-1.4,0.6c-3.6,0.1-7.1-0.3-10.6-1.1c-7.5-1.8-14.4-5-21-8.8c-2.9-1.7-5.7-3.5-8.5-5.3
		c-1.4-0.9-1.4-1-0.8-2.5c2.2-5.5,4.8-10.8,7.6-15.9c8.3-15.4,18-29.9,28.5-43.9c5.8-7.8,11.9-15.4,17.9-23c0.3-0.3,0.5-0.7,0.9-1
		c0.4-0.2,0.9-0.5,1.3-0.5c2.3,0.6,4.6,1.2,6.9,1.9C295.9,89.7,296,89.9,296.3,90.1z"/>
	<path class="st0" d="M352.1,84.5c-1,0.2-1.9,0.4-2.9,0.6c-6.3,1-12.5,1.6-18.9,1.3c-13.9-0.5-27.3-3.1-40.1-8.8
		c-6-2.7-11.5-5.9-16.3-10.5c-2.6-2.4-4.8-5.2-6.1-8.5c-2.3-5.5-1.6-10.7,2.2-15.4c2.7-3.3,6.2-5.6,9.9-7.4c5.4-2.6,11.2-4,17-4.9
		c6.5-1,13.1-1.3,19.7-0.9c6.3,0.3,12.5,1.1,18.6,2.6c0.2,0,0.4,0.2,0.5,0.5c-0.7-0.1-1.4-0.2-2.1-0.2c-0.7-0.1-1.4-0.1-2.1-0.2
		c-5.9-0.4-11.8-0.5-17.7,0c-5.3,0.4-10.5,1.2-15.6,2.7c-3.7,1.1-7.4,2.5-10.7,4.6c-1.9,1.2-3.6,2.6-5,4.3
		c-3.6,4.4-4.1,9.3-1.3,14.3c1.3,2.4,3.1,4.5,5.2,6.4c5.2,4.7,11.3,8,17.8,10.7c8.1,3.3,16.5,5.5,25.1,6.8c7,1.1,13.9,1.6,21,1.5
		c0.6,0,1.1,0,1.7,0C352.1,84.3,352.1,84.4,352.1,84.5z"/>
	<path class="st0" d="M77.7,329.3c-0.1-0.7-0.2-1.4-0.2-2.2c-0.3-10.4,0.7-20.6,2.4-30.8c2.1-12.7,5.1-25.2,8.9-37.5
		c0.3-1,0.7-1.9,1.1-3.1c0.6,0.4,1.1,0.7,1.5,1c2.3,1.9,4.5,3.7,6.7,5.6c1.3,1.1,1.4,1.2,0.7,2.7c-8.8,19-15,38.8-19.6,59.2
		c-0.3,1.3-0.5,2.6-0.8,4c-0.1,0.3-0.2,0.7-0.3,1C77.9,329.3,77.8,329.3,77.7,329.3z"/>
	<path class="st0" d="M83.5,230.8c-0.5-0.6-0.8-1-1-1.4c-5.5-8.8-9.7-18.2-11.6-28.5c-1.8-9.9-1.4-19.6,2-29
		c0.4-1.1,0.9-2.2,1.5-3.4c0.6,0.8,0.3,1.4,0.3,2c-0.1,3-0.3,6-0.2,9.1c0.2,8,1.9,15.7,5.6,22.9c2.1,4.1,4.7,7.9,8.2,11
		c1.1,1,1.2,1.9,0.7,3.2c-1.6,4.1-3.1,8.2-4.6,12.3C84.1,229.5,83.8,230,83.5,230.8z"/>
	<path class="st0" d="M165.7,116c-3.5,3-7,5.8-10.5,8.8c-0.3-0.4-0.6-0.8-0.8-1.2c-3.6-7.6-5.9-15.4-5.5-23.9
		c0.4-8.9,3.4-16.7,9.3-23.3c0.5-0.5,1-1,1.8-1.4c-0.1,0.3-0.1,0.6-0.3,0.9c-4.2,8.9-4.1,18-0.9,27.1c1.4,4.2,3.4,8,6,11.7
		C165.1,115.1,165.4,115.6,165.7,116z"/>
</g>
</svg>
