<?xml version="1.0" encoding="UTF-8"?>
<svg width="543px" height="399px" viewBox="0 0 543 399" version="1.1" xmlns="http://www.w3.org/2000/svg" xmlns:xlink="http://www.w3.org/1999/xlink">
    <!-- Generator: Sketch 50.2 (55047) - http://www.bohemiancoding.com/sketch -->
    <title>logo</title>
    <desc>Created with Sketch.</desc>
    <defs></defs>
    <g id="Page-1" stroke="none" stroke-width="1" fill="none" fill-rule="evenodd">
        <g id="logo" fill="#4A4A4A" fill-rule="nonzero">
            <path d="M534.6,151 C533.3,151 532.2,151 531.1,151 C529.8,151 529.7,150.9 529.4,149.6 C529,147.7 528.7,145.8 528.3,143.9 C526.5,136.2 524.1,128.7 520.5,121.7 C513.7,108.7 503.1,100.7 488.9,97.2 C483.7,95.9 478.4,95.4 473,95.2 C467.7,95 462.5,95.5 457.5,97.2 C449.4,100 443,104.7 438.8,112.3 C436.4,116.7 435.4,121.5 435.5,126.5 C435.7,135.7 439.7,143.1 446.4,149.2 C451.3,153.6 456.7,157.3 462.3,160.7 C475.6,168.7 488.9,176.6 502.3,184.6 C509.5,188.9 516.6,193.2 523.2,198.2 C526.9,201 530.3,204.2 533.2,207.8 C538.7,214.7 541.9,222.4 542.6,231.2 C543.3,240.5 542.2,249.4 538.8,258.1 C533.4,271.4 523.8,280.5 510.7,286 C504.3,288.7 497.6,290.2 490.6,290.9 C484.3,291.6 478.1,291.6 471.8,291.1 C460.8,290.3 450,288.2 439.7,284 C434.1,281.7 428.7,278.9 423.9,275.2 C421.3,273.2 419,271 417,268.4 C413.9,264.5 412.3,260.1 412.3,255.1 C412.3,245.1 412.3,235.1 412.3,225.1 L412.3,224.1 C412.3,223.4 412.8,222.9 413.5,222.9 L415.8,222.9 C417.2,222.9 417.3,223 417.7,224.4 C418.3,227.2 418.9,230 419.6,232.8 C421.4,239.9 423.8,246.8 427.3,253.2 C434.3,265.9 444.9,273.8 458.9,277.4 C463.8,278.6 468.7,279.4 473.8,279.4 C475.3,279.4 476.8,279.7 478.3,279.6 C486.6,279.4 494.6,277.9 501.9,273.7 C508.5,269.9 513.4,264.6 515.8,257.2 C517.1,253.3 517.2,249.3 516.9,245.3 C516.1,235.6 511.3,228 504.2,221.7 C498.3,216.5 491.9,212.1 485.2,208.1 C472.2,200.3 459.1,192.6 445.9,184.8 C439.8,181.1 433.9,177 428.6,172.2 C421.8,166 416.6,158.8 414.1,149.8 C412.1,142.7 411.7,135.6 412.3,128.3 C413,120.4 415.4,113.2 419.7,106.6 C425.5,97.8 433.4,91.7 443.1,87.8 C449,85.4 455.3,83.9 461.6,83.5 C466.6,83.2 471.7,82.9 476.7,83.3 C489.9,84.1 502.7,86.8 514.7,93 C520.4,95.9 525.4,99.6 529.6,104.6 C533.2,108.9 535.1,113.8 535,119.5 C534.9,129.2 534.9,138.9 534.9,148.5 C534.8,149.3 534.6,150.1 534.6,151 Z" id="Shape"></path>
            <path d="M212.1,286.8 C212.4,286 212.6,285.3 212.9,284.7 C221.9,263.4 230.9,242.1 239.9,220.7 C245.2,208.2 250.5,195.7 255.8,183.2 C257,180.3 258.1,177.3 259.4,174.3 C261.4,169.7 263.5,165.1 265.4,160.5 C275,137.8 284.7,115.1 294.3,92.4 C294.6,91.7 295,90.9 295.3,90.2 C295.7,89.1 296.7,88.8 297.9,89.2 C299.3,89.2 300.6,89.2 302,89.2 C303.9,88.7 304.7,89.2 305.1,90.3 C306.1,92.7 307.1,95.1 308.1,97.5 C319.5,125.1 330.8,152.9 342.2,180.5 C351.8,203.8 361.4,227.2 371.1,250.6 C373.1,255.3 375.4,259.9 377.8,264.5 C380.7,270 384.7,274.4 390.1,277.5 C393.7,279.5 397.5,280.4 401.5,281 C403.4,281.3 403.5,281.4 403.5,283.2 C403.5,284.1 403.4,284.9 403.5,285.8 C403.5,286.7 403.1,287.2 402.2,287.4 C400.4,287.7 398.6,288.1 396.8,288.3 C393.6,288.6 390.3,288.7 387.1,288.3 C382.8,287.9 378.5,287.3 374.4,285.9 C366.6,283.3 360.1,278.6 354.5,272.7 C348.4,266.3 344.3,258.7 341.1,250.5 C338.9,244.9 336.7,239.2 334.5,233.6 C334.2,232.9 333.9,232.2 333.6,231.5 C333.3,230.6 332.6,230.2 331.7,230.2 C330.4,230.2 329.1,230.1 327.8,230.1 C304,230 280.1,230 256.2,230 C254.6,230 253,230.2 251.3,230.1 C249.8,230 248.9,230.6 248.3,232 C246.6,236.2 244.7,240.4 243,244.5 C237.3,257.9 231.6,271.4 226,284.8 C225.8,285.2 225.6,285.6 225.5,286 C225.2,286.7 224.8,287 224,287 C220.3,287 216.6,287 213,287 C212.8,287 212.6,286.9 212.1,286.8 Z M289.4,218.3 C295.6,218.3 301.8,218.4 308.1,218.3 C313.2,218.3 318.3,218.1 323.3,218 C325.1,218 325.7,217.1 325.4,215.4 C325.3,215 325.2,214.7 325.1,214.3 C324.5,212.8 324,211.3 323.3,209.8 C315.9,191.9 308.6,174.1 301.2,156.2 C299,151 296.8,145.7 294.6,140.5 C294.2,139.6 293.8,138.7 292.9,138.2 C292,137.6 291.1,137.1 290.1,136.5 C289.3,136 289,136.1 288.5,136.9 C288.2,137.5 287.9,138 287.6,138.6 C284.1,146.5 280.7,154.3 277.3,162.2 C269.7,180 262.1,197.7 254.4,215.5 C254.2,215.9 254,216.4 253.9,216.9 C253.8,217.4 254.1,218 254.7,218 C255,218 255.2,218 255.5,218 C260.4,218.1 265.2,218.2 270.1,218.2 C276.6,218.3 283,218.3 289.4,218.3 Z" id="Shape"></path>
            <path d="M323.9,14.2 C260,-1.2 199,5.9 141.1,37 C101.4,58.3 69.9,88.5 46.4,126.9 C29.6,154.4 18.5,184.1 13.1,215.9 C7.7,247.8 8.4,279.5 15.2,311.1 C22,342.6 34.6,371.7 52.4,398.7 C52.2,398.5 52,398.4 51.8,398.2 C51.6,398 51.5,397.8 51.3,397.5 C35.7,376.3 23.6,353.3 15,328.5 C10,314.2 6.4,299.5 4,284.5 C1.5,268.5 0.5,252.4 1.1,236.2 C2.5,200.3 11,166.2 26.9,134 C38,111.5 52.2,91.3 69.7,73.2 C97.2,44.8 129.9,24.5 167.4,12 C179.8,7.9 192.5,4.8 205.5,2.9 C211.7,2 218,1.4 224.3,0.8 C233.7,-0.1 243.1,6.90558721e-14 252.5,0.3 C258.5,0.5 264.5,1.2 270.4,1.8 C279.5,2.8 288.5,4.3 297.4,6.4 C305.9,8.4 314.3,10.8 322.6,13.6 C323,13.8 323.4,14 323.9,14.2 Z" id="Shape"></path>
            <path d="M136.7,134.8 C137.2,135.1 137.6,135.4 138,135.7 C140.6,137.9 143.2,140.1 145.8,142.3 C146.9,143.3 146.9,143.4 145.9,144.5 C122.1,169.1 104.2,197.5 91,228.9 C89.9,231.5 89.9,231.2 92,232.7 C105.5,242.2 119.4,251.1 134.2,258.4 C138.5,260.5 143.1,262.3 147.6,264.2 C149.4,265 149.5,265 148.9,266.8 C148.1,269.5 147.2,272.3 146.4,275 C145.9,276.5 145.8,276.6 144.2,276.1 C137.8,273.9 131.6,271.2 125.5,268.3 C109.6,260.6 95,251.2 81.9,239.3 C80,237.6 78.3,235.7 76.4,234.1 C74.9,232.8 74.8,231.6 75.4,229.8 C77.4,224.1 79.6,218.4 82.1,212.9 C92.1,190.8 105.2,170.7 120.8,152.3 C125.5,146.8 130.5,141.5 135.4,136.2 C135.7,135.6 136.2,135.2 136.7,134.8 Z" id="Shape"></path>
            <path d="M218.4,292.7 C217.8,293 217.2,293.3 216.5,293.5 C213.1,294.6 209.5,295 206,295.1 C198.3,295.3 190.8,294.1 183.4,292.4 C175.6,290.6 168,288 160.6,285.1 C160.2,285 159.9,284.8 159.6,284.7 C159.1,284.5 158.9,284.1 159,283.5 C159.1,283.1 159.2,282.6 159.3,282.2 C165.4,258 173.1,234.3 182.9,211.4 C187.8,199.9 193.4,188.6 200.1,178 C201.2,176.3 202.3,174.6 203.4,173 C203.8,172.3 204.3,171.9 205.3,172.2 C208.6,173.4 212,174.6 215.4,175.8 C215.6,175.9 215.8,176.1 216.3,176.3 C215.9,177.2 215.6,178 215.2,178.8 C210.1,190 204.9,201.1 200,212.3 C193.6,226.9 187.9,241.7 183,256.8 C180.6,264.2 178.6,271.7 177.2,279.4 C176.9,280.9 177,281.1 178.5,281.6 C191.1,285.4 203.6,289.2 216.5,291.9 C217.2,292 217.8,292.2 218.5,292.3 C218.4,292.3 218.4,292.5 218.4,292.7 Z" id="Shape"></path>
            <path d="M165.8,125.9 C167.9,127.8 170.2,129.2 172.4,130.7 C174.6,132.2 176.9,133.7 179.2,135.1 C181.6,136.5 183.9,137.9 186.4,139.2 C188.8,140.5 191.2,141.7 193.6,142.8 C196,143.9 198.5,144.9 201.1,146 C199,149.7 197.1,153.2 195.1,156.9 C194.6,156.7 194.2,156.6 193.8,156.4 C180.9,149.7 168.3,142.7 156.4,134.3 C153.1,132 150,129.4 147.1,126.5 C147,126.4 146.9,126.3 146.8,126.2 C145.8,125.2 145.8,124.9 146.7,123.9 C147.3,123.2 147.9,122.5 148.6,121.9 C156.1,114.1 164.5,107.4 173.2,101.1 C191.9,87.4 211.8,75.5 232.3,64.5 C235.1,63 237.8,61.5 240.6,60.1 C242,59.4 242.2,59.4 243.1,60.8 C243.6,61.6 244.1,62.3 244.6,63.1 C245.4,64.4 245.4,64.6 244,65.3 C241.6,66.6 239.2,67.8 236.8,69.1 C212.4,82.7 190.5,99.4 171.4,119.7 C169.9,121.3 168.5,122.9 167.1,124.5 C166.6,124.7 166.3,125.2 165.8,125.9 Z" id="Shape"></path>
            <path d="M276.3,79.1 C276,79.6 275.7,80.2 275.3,80.7 C266.5,93.2 257.9,105.9 249.7,118.8 C242.7,129.8 235.8,141 229.8,152.6 C228.9,154.3 228.1,156.1 227.3,157.9 C226.7,159.1 226.8,159.3 228,159.9 C236.9,164.7 245.9,169.2 255.5,172.5 C256,172.7 256.4,172.8 256.9,173 C257,173.1 257.2,173.2 257.4,173.4 C256.6,175 255.8,176.7 255.1,178.3 C254.8,178.9 254.3,178.9 253.7,178.9 C250.1,179 246.6,178.6 243.1,177.8 C235.6,176 228.7,172.8 222.1,169 C219.2,167.3 216.4,165.5 213.6,163.7 C212.2,162.8 212.2,162.7 212.8,161.2 C215,155.7 217.6,150.4 220.4,145.3 C228.7,129.9 238.4,115.4 248.9,101.4 C254.7,93.6 260.8,86 266.8,78.4 C267.1,78.1 267.3,77.7 267.7,77.4 C268.1,77.2 268.6,76.9 269,76.9 C271.3,77.5 273.6,78.1 275.9,78.8 C275.9,78.7 276,78.9 276.3,79.1 Z" id="Shape"></path>
            <path d="M332.1,73.5 C331.1,73.7 330.2,73.9 329.2,74.1 C322.9,75.1 316.7,75.7 310.3,75.4 C296.4,74.9 283,72.3 270.2,66.6 C264.2,63.9 258.7,60.7 253.9,56.1 C251.3,53.7 249.1,50.9 247.8,47.6 C245.5,42.1 246.2,36.9 250,32.2 C252.7,28.9 256.2,26.6 259.9,24.8 C265.3,22.2 271.1,20.8 276.9,19.9 C283.4,18.9 290,18.6 296.6,19 C302.9,19.3 309.1,20.1 315.2,21.6 C315.4,21.6 315.6,21.8 315.7,22.1 C315,22 314.3,21.9 313.6,21.9 C312.9,21.8 312.2,21.8 311.5,21.7 C305.6,21.3 299.7,21.2 293.8,21.7 C288.5,22.1 283.3,22.9 278.2,24.4 C274.5,25.5 270.8,26.9 267.5,29 C265.6,30.2 263.9,31.6 262.5,33.3 C258.9,37.7 258.4,42.6 261.2,47.6 C262.5,50 264.3,52.1 266.4,54 C271.6,58.7 277.7,62 284.2,64.7 C292.3,68 300.7,70.2 309.3,71.5 C316.3,72.6 323.2,73.1 330.3,73 C330.9,73 331.4,73 332,73 C332.1,73.3 332.1,73.4 332.1,73.5 Z" id="Shape"></path>
            <path d="M57.7,318.3 C57.6,317.6 57.5,316.9 57.5,316.1 C57.2,305.7 58.2,295.5 59.9,285.3 C62,272.6 65,260.1 68.8,247.8 C69.1,246.8 69.5,245.9 69.9,244.7 C70.5,245.1 71,245.4 71.4,245.7 C73.7,247.6 75.9,249.4 78.1,251.3 C79.4,252.4 79.5,252.5 78.8,254 C70,273 63.8,292.8 59.2,313.2 C58.9,314.5 58.7,315.8 58.4,317.2 C58.3,317.5 58.2,317.9 58.1,318.2 C57.9,318.3 57.8,318.3 57.7,318.3 Z" id="Shape"></path>
            <path d="M63.5,219.8 C63,219.2 62.7,218.8 62.5,218.4 C57,209.6 52.8,200.2 50.9,189.9 C49.1,180 49.5,170.3 52.9,160.9 C53.3,159.8 53.8,158.7 54.4,157.5 C55,158.3 54.7,158.9 54.7,159.5 C54.6,162.5 54.4,165.5 54.5,168.6 C54.7,176.6 56.4,184.3 60.1,191.5 C62.2,195.6 64.8,199.4 68.3,202.5 C69.4,203.5 69.5,204.4 69,205.7 C67.4,209.8 65.9,213.9 64.4,218 C64.1,218.5 63.8,219 63.5,219.8 Z" id="Shape"></path>
            <path d="M145.7,105 C142.2,108 138.7,110.8 135.2,113.8 C134.9,113.4 134.6,113 134.4,112.6 C130.8,105 128.5,97.2 128.9,88.7 C129.3,79.8 132.3,72 138.2,65.4 C138.7,64.9 139.2,64.4 140,64 C139.9,64.3 139.9,64.6 139.7,64.9 C135.5,73.8 135.6,82.9 138.8,92 C140.2,96.2 142.2,100 144.8,103.7 C145.1,104.1 145.4,104.6 145.7,105 Z" id="Shape"></path>
        </g>
    </g>
</svg>