<svg xmlns="http://www.w3.org/2000/svg" xmlns:xlink="http://www.w3.org/1999/xlink" version="1.1" x="0px" y="0px" viewBox="0 0 512 640" style="enable-background:new 0 0 512 512;" xml:space="preserve"><g><path d="M0,0v85.3h512V0H0z M309.3,53.3h-256V32h256V53.3z M384,53.3h-21.3V32H384V53.3z M426.7,53.3h-21.3V32h21.3V53.3z    M469.3,53.3H448V32h21.3V53.3z"/><path d="M0,512h512V106.6H0V512z M333.8,220.9l15.1-15.1l82.2,82.2l-82.2,82.2l-15.1-15.1l67.1-67.1L333.8,220.9z M288.8,177.3   l19.8,8.1l-96,234.7l-19.8-8.1L288.8,177.3z M163.1,205.8l15.1,15.1L111.1,288l67.1,67.1l-15.1,15.1L80.9,288L163.1,205.8z"/></g><text x="0" y="527" fill="#000000" font-size="5px" font-weight="bold" font-family="'Helvetica Neue', Helvetica, Arial-Unicode, Arial, Sans-serif">Created by Dinosoft Labs</text><text x="0" y="532" fill="#000000" font-size="5px" font-weight="bold" font-family="'Helvetica Neue', Helvetica, Arial-Unicode, Arial, Sans-serif">from the Noun Project</text></svg>