<svg id="a1b586a0-4393-43e4-8854-2a29a2618208" data-name="Calque 1" xmlns="http://www.w3.org/2000/svg" viewBox="0 0 541.6 398.6"><title>logo</title><path d="M663.9,247.1h-3.5c-1.3,0-1.4-.1-1.7-1.4s-.7-3.8-1.1-5.7a96,96,0,0,0-7.8-22.2c-6.8-13-17.4-21-31.6-24.5a76.9,76.9,0,0,0-15.9-2,42.7,42.7,0,0,0-15.5,2c-8.1,2.8-14.5,7.5-18.7,15.1a28,28,0,0,0-3.3,14.2c.2,9.2,4.2,16.6,10.9,22.7a105.4,105.4,0,0,0,15.9,11.5l39.9,23.9a226.9,226.9,0,0,1,20.9,13.6,56.8,56.8,0,0,1,10,9.6,42,42,0,0,1,9.4,23.4,60.1,60.1,0,0,1-3.8,26.9c-5.4,13.3-15,22.4-28.1,27.9a68.8,68.8,0,0,1-20.1,4.9,98.4,98.4,0,0,1-18.8.2,104.4,104.4,0,0,1-32.1-7.1,67.9,67.9,0,0,1-15.8-8.8,37,37,0,0,1-6.9-6.8,20.8,20.8,0,0,1-4.7-13.3v-31a1.1,1.1,0,0,1,1.2-1.2H545c1.4,0,1.5.1,1.9,1.5s1.2,5.6,1.9,8.4a86.6,86.6,0,0,0,7.7,20.4c7,12.7,17.6,20.6,31.6,24.2a62.2,62.2,0,0,0,14.9,2c1.5,0,3,.3,4.5.2,8.3-.2,16.3-1.7,23.6-5.9s11.5-9.1,13.9-16.5a30,30,0,0,0,1.1-11.9c-.8-9.7-5.6-17.3-12.7-23.6a126.5,126.5,0,0,0-19-13.6l-39.2-23.3a112.5,112.5,0,0,1-17.3-12.6c-6.8-6.2-12-13.4-14.5-22.4a60,60,0,0,1-1.8-21.5,46.5,46.5,0,0,1,7.4-21.7,49.1,49.1,0,0,1,23.4-18.8,59.4,59.4,0,0,1,18.5-4.3,108.7,108.7,0,0,1,15.1-.2c13.2.8,26,3.5,37.9,9.7a46.6,46.6,0,0,1,14.9,11.6,21.9,21.9,0,0,1,5.4,14.9c-.1,9.7-.1,19.4-.1,29A22.9,22.9,0,0,1,663.9,247.1Z" transform="translate(-130.5 -95.9)" fill="#fff"/><path d="M341.7,382.2c.3-.8.5-1.5.8-2.1l27-63.9,15.9-37.5c1.2-2.9,2.3-5.9,3.6-8.9,2-4.6,4.1-9.2,6-13.8,9.6-22.7,19.3-45.4,28.9-68l1-2.2a1.7,1.7,0,0,1,1.7-1.2h6.3a1.7,1.7,0,0,1,1.8,1.3l3,7.2c11.4,27.6,22.7,55.3,34.1,82.9,9.6,23.3,19.2,46.7,28.9,70,2,4.7,4.3,9.3,6.7,13.9a31.5,31.5,0,0,0,12.3,13,32.8,32.8,0,0,0,11.4,3.5c1.9.3,2,.4,2,2.2a22.6,22.6,0,0,0,0,2.6,1.5,1.5,0,0,1-1.3,1.6c-1.8.3-3.6.7-5.4.9a44.9,44.9,0,0,1-9.7,0,54.8,54.8,0,0,1-12.7-2.4,48.7,48.7,0,0,1-19.9-13.2c-6.1-6.4-10.2-14-13.4-22.2L464.1,329l-.9-2.1a1.8,1.8,0,0,0-1.9-1.3H385.9c-1.6,0-3.2.2-4.9.1a2.7,2.7,0,0,0-3,1.9c-1.7,4.2-3.6,8.4-5.3,12.5-5.7,13.4-11.4,26.9-17,40.3a6.1,6.1,0,0,0-.5,1.2,1.4,1.4,0,0,1-1.5,1h-11Zm77.8-68.5h0c6.2,0,12.4.1,18.7,0s10.2-.2,15.2-.3c1.8,0,2.4-.9,2.1-2.6l-.3-1.1c-.6-1.5-1.1-3-1.8-4.5l-22.1-53.6-6.6-15.7a4.4,4.4,0,0,0-1.7-2.3l-2.8-1.7c-.8-.5-1.1-.4-1.6.4l-.9,1.7c-3.5,7.9-6.9,15.7-10.3,23.6-7.6,17.8-15.2,35.5-22.9,53.3a5.8,5.8,0,0,0-.5,1.4c-.2.7.1,1,.8,1.1h.8l14.6.2Z" transform="translate(-130.5 -95.9)" fill="#fff"/><path d="M453.4,110c-63.8-15.3-124.9-8.3-182.8,22.8-39.7,21.3-71.2,51.5-94.7,89.9a251.8,251.8,0,0,0-31.2,184.2,256.3,256.3,0,0,0,37.2,87.6l-.6-.5-.5-.7a258.9,258.9,0,0,1-36.3-69,255.2,255.2,0,0,1-11-44,251.7,251.7,0,0,1,22.9-150.5,240.2,240.2,0,0,1,140.5-122A224.8,224.8,0,0,1,335,98.7c6.2-.9,12.5-1.5,18.8-2.1a221.2,221.2,0,0,1,28.2-.5c6,.2,12,.9,17.9,1.5a223.9,223.9,0,0,1,27,4.6q12.8,3,25.2,7.2Z" transform="translate(-130.5 -95.9)" fill="#fff"/><path d="M266.3,230.6l1.3.9,7.8,6.6c1.1,1,1.1,1.1.1,2.2-23.8,24.6-41.7,53-54.9,84.4-1.1,2.6-1.1,2.3,1,3.8,13.5,9.5,27.4,18.4,42.2,25.7,4.3,2.1,8.9,3.9,13.4,5.8,1.8.8,1.9.8,1.3,2.6l-2.5,8.2c-.5,1.5-.6,1.6-2.2,1.1a179.8,179.8,0,0,1-18.7-7.8,182,182,0,0,1-43.6-29c-1.9-1.7-3.6-3.6-5.5-5.2s-1.6-2.5-1-4.3c2-5.7,4.2-11.4,6.7-16.9a258,258,0,0,1,38.7-60.6c4.7-5.5,9.7-10.8,14.6-16.1A2.9,2.9,0,0,1,266.3,230.6Z" transform="translate(-130.5 -95.9)" fill="#fff"/><path d="M347.9,388.5l-1.9.8a37.7,37.7,0,0,1-10.5,1.6,90.2,90.2,0,0,1-22.6-2.7,163.6,163.6,0,0,1-22.8-7.3l-1-.4a1,1,0,0,1-.6-1.2l.3-1.3a474.2,474.2,0,0,1,23.6-70.8,234.2,234.2,0,0,1,17.2-33.4l3.3-5a1.4,1.4,0,0,1,1.9-.8l10.1,3.6.9.5c-.4.9-.7,1.7-1.1,2.5-5.1,11.2-10.3,22.3-15.2,33.5q-9.6,21.9-17,44.5a174.1,174.1,0,0,0-5.8,22.6c-.3,1.5-.2,1.7,1.3,2.2,12.6,3.8,25.1,7.6,38,10.3l2,.4C347.9,388.1,347.9,388.3,347.9,388.5Z" transform="translate(-130.5 -95.9)" fill="#fff"/><path d="M295.4,221.7a58.1,58.1,0,0,0,6.6,4.8l6.8,4.4c2.4,1.4,4.7,2.8,7.2,4.1s4.8,2.5,7.2,3.6l7.5,3.2c-2.1,3.7-4,7.2-6,10.9l-1.3-.5c-12.9-6.7-25.5-13.7-37.4-22.1a68.6,68.6,0,0,1-9.3-7.8l-.3-.3c-1-1-1-1.3-.1-2.3a18,18,0,0,1,1.9-2,180.5,180.5,0,0,1,24.6-20.8c18.7-13.7,38.6-25.6,59.1-36.6l8.3-4.4c1.4-.7,1.6-.7,2.5.7l1.5,2.3c.8,1.3.8,1.5-.6,2.2l-7.2,3.8A268.4,268.4,0,0,0,301,215.5l-4.3,4.8C296.2,220.5,295.9,221,295.4,221.7Z" transform="translate(-130.5 -95.9)" fill="#fff"/><path d="M405.8,174.9a14,14,0,0,1-1,1.6c-8.8,12.5-17.4,25.2-25.6,38.1-7,11-13.9,22.2-19.9,33.8-.9,1.7-1.7,3.5-2.5,5.3s-.5,1.4.7,2A184.6,184.6,0,0,0,385,268.3l1.4.5.5.4c-.8,1.6-1.6,3.3-2.3,4.9s-.8.6-1.4.6a42,42,0,0,1-10.6-1.1,79.2,79.2,0,0,1-21-8.8c-2.9-1.7-5.7-3.5-8.5-5.3s-1.4-1-.8-2.5a145.2,145.2,0,0,1,7.6-15.9,350.7,350.7,0,0,1,28.5-43.9c5.8-7.8,11.9-15.4,17.9-23a8.1,8.1,0,0,1,.9-1,3.5,3.5,0,0,1,1.3-.5l6.9,1.9C405.5,174.5,405.6,174.7,405.8,174.9Z" transform="translate(-130.5 -95.9)" fill="#fff"/><path d="M461.7,169.2l-2.9.6a92,92,0,0,1-18.9,1.3c-13.9-.5-27.3-3.1-40.1-8.8a56.2,56.2,0,0,1-16.3-10.5,23.4,23.4,0,0,1-6.1-8.5,14.3,14.3,0,0,1,2.2-15.4,28.6,28.6,0,0,1,9.9-7.4,60.1,60.1,0,0,1,17-4.9,92.7,92.7,0,0,1,19.7-.9,96.9,96.9,0,0,1,18.6,2.6c.2,0,.4.2.5.5l-2.1-.2-2.1-.2a116.2,116.2,0,0,0-17.7,0,74.9,74.9,0,0,0-15.6,2.7,42.2,42.2,0,0,0-10.7,4.6,20.7,20.7,0,0,0-5,4.3c-3.6,4.4-4.1,9.3-1.3,14.3a24.4,24.4,0,0,0,5.2,6.4,60.8,60.8,0,0,0,17.8,10.7,109.8,109.8,0,0,0,25.1,6.8,122.9,122.9,0,0,0,21,1.5h1.7A1.3,1.3,0,0,1,461.7,169.2Z" transform="translate(-130.5 -95.9)" fill="#fff"/><path d="M187.3,414.1a15,15,0,0,1-.2-2.2,158.7,158.7,0,0,1,2.4-30.8,283.9,283.9,0,0,1,8.9-37.5c.3-1,.7-1.9,1.1-3.1l1.5,1,6.7,5.6c1.3,1.1,1.4,1.2.7,2.7-8.8,19-15,38.8-19.6,59.2-.3,1.3-.5,2.6-.8,4l-.3,1Z" transform="translate(-130.5 -95.9)" fill="#fff"/><path d="M193.1,315.6a7.6,7.6,0,0,1-1-1.4c-5.5-8.8-9.7-18.2-11.6-28.5s-1.4-19.6,2-29a32.3,32.3,0,0,1,1.5-3.4c.6.8.3,1.4.3,2-.1,3-.3,6-.2,9.1a52.3,52.3,0,0,0,5.6,22.9,36.8,36.8,0,0,0,8.2,11,2.5,2.5,0,0,1,.7,3.2c-1.6,4.1-3.1,8.2-4.6,12.3A10,10,0,0,0,193.1,315.6Z" transform="translate(-130.5 -95.9)" fill="#fff"/><path d="M275.2,200.8l-10.5,8.8-.8-1.2c-3.6-7.6-5.9-15.4-5.5-23.9a36.3,36.3,0,0,1,9.3-23.3,6.6,6.6,0,0,1,1.8-1.4,3.2,3.2,0,0,1-.3.9c-4.2,8.9-4.1,18-.9,27.1a44.7,44.7,0,0,0,6,11.7A5.1,5.1,0,0,1,275.2,200.8Z" transform="translate(-130.5 -95.9)" fill="#fff"/><path d="M419.5,313.7H400.2l-14.6-.2h-.8c-.7-.1-1-.5-.8-1.1a7.8,7.8,0,0,1,.5-1.4c7.6-17.8,15.2-35.5,22.9-53.3,3.4-7.9,6.9-15.7,10.3-23.6a9.1,9.1,0,0,1,.9-1.7c.5-.8.8-.9,1.6-.4l2.8,1.7a4.4,4.4,0,0,1,1.7,2.3l6.6,15.7c7.4,17.9,14.8,35.7,22.1,53.6l1.8,4.5a4.5,4.5,0,0,1,.3,1.1c.3,1.7-.3,2.6-2.1,2.6l-15.2.3Z" transform="translate(-130.5 -95.9)" fill="none"/></svg>