<svg xmlns="http://www.w3.org/2000/svg" xmlns:xlink="http://www.w3.org/1999/xlink" version="1.1" x="0px" y="0px" viewBox="0 0 100 125" enable-background="new 0 0 100 100" xml:space="preserve"><g><polygon points="46.354,91.97 30.924,91.97 32.833,82.72 44.443,82.72  "/><rect x="85.044" y="37.57" width="1.56" height="30.13"/><path d="M74.174,30.3V39.4l-2.03,0.71v-9.43c0-0.45-0.37-0.82-0.82-0.82h-1.699v-2.33h1.779   C72.934,27.53,74.174,28.771,74.174,30.3z"/><polygon points="83.403,37.91 83.403,67.37 72.144,63.43 72.144,41.84  "/><path d="M72.144,65.16v9.43c0,0.45-0.37,0.82-0.82,0.82H5.954c-0.45,0-0.82-0.37-0.82-0.82V30.681c0-0.45,0.37-0.82,0.82-0.82   h19.14v-2.33H5.874c-1.53,0-2.77,1.24-2.77,2.77V78.32c0,1.529,1.24,2.77,2.77,2.77h65.53c1.53,0,2.771-1.25,2.771-2.77V65.87   L72.144,65.16z M43.164,78.98h-9.04c-0.46,0-0.82-0.37-0.82-0.82s0.36-0.82,0.82-0.82h9.04c0.45,0,0.81,0.37,0.81,0.82   S43.614,78.98,43.164,78.98z"/><path d="M65.033,8.03h-35.35c-0.72,0-1.42,0.27-1.96,0.75c-0.64,0.56-1,1.37-1,2.21v19.13c0,1.63,1.33,2.95,2.96,2.95h19.61   c0.02,0,0.03,0.01,0.04,0.01c0.04,0,0.07,0,0.11,0.01c0.02,0,0.04,0.011,0.06,0.011c0.03,0.01,0.06,0.02,0.09,0.029   c0.02,0.011,0.04,0.021,0.06,0.03c0.03,0.01,0.06,0.03,0.08,0.05c0.021,0.011,0.04,0.021,0.061,0.04   c0.02,0.01,0.04,0.021,0.05,0.04l8.18,7.51v-6.909c0-0.45,0.37-0.82,0.82-0.82h6.189c1.631,0,2.95-1.32,2.95-2.95V10.99   C67.983,9.36,66.664,8.03,65.033,8.03z M44.684,20.9c0,0.37-0.06,0.72-0.16,1.06l5.33,2.98c0.69-0.771,1.68-1.25,2.79-1.25   c2.06,0,3.74,1.67,3.74,3.74c0,2.06-1.681,3.739-3.74,3.739s-3.74-1.68-3.74-3.739c0-0.37,0.05-0.73,0.15-1.07l-5.33-2.98   c-0.69,0.771-1.68,1.261-2.78,1.261c-2.07,0-3.74-1.681-3.74-3.74c0-2.07,1.67-3.74,3.74-3.74c1.1,0,2.09,0.48,2.78,1.25   l5.33-2.979c-0.1-0.341-0.15-0.69-0.15-1.07c0-2.061,1.68-3.73,3.74-3.73s3.74,1.67,3.74,3.73c0,2.07-1.681,3.74-3.74,3.74   c-1.11,0-2.1-0.48-2.79-1.25l-5.33,2.979C44.624,20.17,44.684,20.53,44.684,20.9z"/><path d="M69.403,31.5c-0.59,1.851-2.319,3.21-4.37,3.21h-5.369l-0.011,7.95c0,0.021-0.01,0.04-0.01,0.05c0,0.03,0,0.061-0.01,0.09   c0,0.03-0.01,0.051-0.01,0.08c-0.011,0.021-0.021,0.051-0.03,0.08c-0.01,0.021-0.021,0.05-0.03,0.07   c-0.02,0.02-0.03,0.05-0.04,0.07c-0.02,0.02-0.04,0.05-0.05,0.069c-0.021,0.011-0.021,0.03-0.04,0.04   c0,0.011-0.01,0.011-0.01,0.011c-0.03,0.029-0.05,0.05-0.08,0.069c-0.021,0.021-0.03,0.03-0.04,0.04   c-0.04,0.021-0.08,0.04-0.11,0.061c-0.01,0.01-0.02,0.02-0.04,0.02c-0.1,0.04-0.2,0.07-0.319,0.07c-0.051,0-0.101-0.01-0.16-0.021   c-0.01,0-0.03-0.01-0.05-0.02c-0.03-0.01-0.061-0.01-0.091-0.021c-0.029-0.01-0.05-0.02-0.069-0.04   c-0.021-0.01-0.05-0.02-0.07-0.04c-0.02-0.01-0.04-0.029-0.06-0.04c-0.021-0.02-0.04-0.029-0.051-0.04l-9.31-8.55h-19.29   c-2.05,0-3.79-1.359-4.38-3.21H6.773v42.28h63.74V31.5H69.403z M47.664,66.5c0,1.92-1.55,3.47-3.46,3.47h-28.55   c-1.91,0-3.47-1.55-3.47-3.47V47.57c0-1.021,0.44-1.93,1.14-2.57c0.02-0.02,0.05-0.05,0.08-0.069c0.6-0.521,1.39-0.83,2.25-0.83   h28.54c0.87,0,1.65,0.319,2.26,0.84l0.06,0.06c0.71,0.63,1.15,1.55,1.15,2.57V66.5z M51.363,47.42h4.17c0.45,0,0.82,0.37,0.82,0.82   s-0.37,0.81-0.82,0.81h-4.17c-0.449,0-0.819-0.359-0.819-0.81S50.914,47.42,51.363,47.42z M51.363,51.82h7.49   c0.45,0,0.811,0.37,0.811,0.819c0,0.45-0.36,0.82-0.811,0.82h-7.49c-0.449,0-0.819-0.37-0.819-0.82   C50.544,52.19,50.914,51.82,51.363,51.82z M55.533,66.65h-4.17c-0.449,0-0.819-0.36-0.819-0.811s0.37-0.82,0.819-0.82h4.17   c0.45,0,0.82,0.37,0.82,0.82S55.983,66.65,55.533,66.65z M58.854,62.25h-7.49c-0.449,0-0.819-0.36-0.819-0.81   c0-0.45,0.37-0.82,0.819-0.82h7.49c0.45,0,0.811,0.37,0.811,0.82C59.664,61.89,59.304,62.25,58.854,62.25z M62.834,57.85H51.363   c-0.449,0-0.819-0.359-0.819-0.81s0.37-0.82,0.819-0.82h11.471c0.449,0,0.81,0.37,0.81,0.82S63.283,57.85,62.834,57.85z"/><path d="M96.08,51.819h-4.172c-0.451,0-0.816,0.365-0.816,0.816c0,0.45,0.365,0.816,0.816,0.816h4.172   c0.451,0,0.816-0.366,0.816-0.816C96.896,52.185,96.531,51.819,96.08,51.819z"/><path d="M96.08,47.421h-4.172c-0.451,0-0.816,0.366-0.816,0.816c0,0.451,0.365,0.816,0.816,0.816h4.172   c0.451,0,0.816-0.365,0.816-0.816S96.531,47.421,96.08,47.421z"/><path d="M96.08,43.021h-4.172c-0.451,0-0.816,0.365-0.816,0.816s0.365,0.816,0.816,0.816h4.172c0.451,0,0.816-0.365,0.816-0.816   S96.531,43.021,96.08,43.021z"/><path d="M91.908,40.255h4.172c0.451,0,0.816-0.365,0.816-0.816s-0.365-0.816-0.816-0.816h-4.172c-0.451,0-0.818,0.365-0.818,0.816   C91.09,39.888,91.457,40.255,91.908,40.255z"/><path d="M96.08,65.019h-4.172c-0.451,0-0.816,0.364-0.816,0.816c0,0.45,0.365,0.816,0.816,0.816h4.172   c0.451,0,0.816-0.366,0.816-0.816C96.896,65.384,96.531,65.019,96.08,65.019z"/><path d="M96.08,60.619h-4.172c-0.451,0-0.816,0.366-0.816,0.817c0,0.449,0.365,0.815,0.816,0.815h4.172   c0.451,0,0.816-0.366,0.816-0.815C96.896,60.985,96.531,60.619,96.08,60.619z"/><path d="M96.08,56.22h-4.172c-0.451,0-0.816,0.366-0.816,0.816c0,0.451,0.365,0.816,0.816,0.816h4.172   c0.451,0,0.816-0.365,0.816-0.816C96.896,56.586,96.531,56.22,96.08,56.22z"/><path d="M54.743,14.36c0,1.17-0.939,2.11-2.1,2.11s-2.11-0.94-2.11-2.11c0-1.16,0.95-2.101,2.11-2.101S54.743,13.2,54.743,14.36z"/><path d="M43.043,20.9c0,1.16-0.94,2.1-2.1,2.1c-1.17,0-2.11-0.939-2.11-2.1c0-1.17,0.94-2.11,2.11-2.11   C42.104,18.79,43.043,19.73,43.043,20.9z"/><path d="M54.743,27.431c0,1.159-0.939,2.1-2.1,2.1s-2.11-0.94-2.11-2.1c0-0.37,0.101-0.721,0.261-1.021c0.01,0,0.01,0,0.01-0.01   c0.36-0.641,1.05-1.08,1.84-1.08C53.804,25.32,54.743,26.26,54.743,27.431z"/><path d="M44.304,45.74l-14.38,10.29l-14.37-10.29c0.03,0,0.06-0.01,0.1-0.01h28.55C44.233,45.73,44.264,45.74,44.304,45.74z"/><path d="M46.034,47.57V66.51c0,1.01-0.82,1.83-1.83,1.83h-28.55c-1.01,0-1.84-0.82-1.84-1.83V47.57c0-0.33,0.09-0.63,0.24-0.9   l15.4,11.03c0.03,0.02,0.06,0.04,0.1,0.06c0,0,0,0.01,0.01,0.01c0.05,0.021,0.1,0.04,0.16,0.061h0.03   c0.06,0.02,0.12,0.02,0.17,0.02c0.06,0,0.11,0,0.17-0.02h0.04c0.05-0.021,0.1-0.04,0.16-0.061c0,0,0-0.01,0.01-0.01   c0.03-0.02,0.06-0.04,0.1-0.06l15.4-11.03C45.954,46.94,46.034,47.24,46.034,47.57z"/></g><text x="0" y="115" fill="#000000" font-size="5px" font-weight="bold" font-family="'Helvetica Neue', Helvetica, Arial-Unicode, Arial, Sans-serif">Created by Cuby Design</text><text x="0" y="120" fill="#000000" font-size="5px" font-weight="bold" font-family="'Helvetica Neue', Helvetica, Arial-Unicode, Arial, Sans-serif">from the Noun Project</text></svg>