<?xml version="1.0" encoding="UTF-8"?>
<svg width="500px" height="500px" viewBox="0 0 500 500" version="1.1" xmlns="http://www.w3.org/2000/svg" xmlns:xlink="http://www.w3.org/1999/xlink">
    <!-- Generator: Sketch 50 (54983) - http://www.bohemiancoding.com/sketch -->
    <title>Artboard</title>
    <desc>Created with Sketch.</desc>
    <defs></defs>
    <g id="Artboard" stroke="none" stroke-width="1" fill="none" fill-rule="evenodd">
        <g id="marketing" fill="#4186BC" fill-rule="nonzero">
            <polygon id="Shape" points="231 500 148 500 158.268762 445 220.72048 445"></polygon>
            <rect id="Rectangle-path" x="437" y="177" width="8" height="180"></rect>
            <path d="M379,134.294118 L379,187.823529 L368.289954,192 L368.289954,136.529412 C368.289954,133.882353 366.337876,131.705882 363.963728,131.705882 L355,131.705882 L355,118 L364.385799,118 C372.457903,118 379,125.3 379,134.294118 Z" id="Shape"></path>
            <polygon id="Shape" points="428 179 428 355 368 331.461643 368 202.478615"></polygon>
            <path d="M370.112141,342.822719 L370.112141,399.164323 C370.112141,401.852947 368.128632,404.063593 365.716256,404.063593 L15.2783836,404.063593 C12.8660072,404.063593 10.8824978,401.852947 10.8824978,399.164323 L10.8824978,136.820366 C10.8824978,134.131743 12.8660072,131.921096 15.2783836,131.921096 L117.884791,131.921096 L117.884791,118 L14.8495167,118 C6.64743707,118 0,125.408652 0,134.549973 L0,421.450027 C0,430.585373 6.64743707,438 14.8495167,438 L366.145122,438 C374.347202,438 381,430.531601 381,421.450027 L381,347.06477 L370.112141,342.822719 Z M214.755104,425.393342 L166.293143,425.393342 C163.827159,425.393342 161.897258,423.182696 161.897258,420.494072 C161.897258,417.805448 163.827159,415.594802 166.293143,415.594802 L214.755104,415.594802 C217.16748,415.594802 219.097381,417.805448 219.097381,420.494072 C219.097381,423.182696 217.16748,425.393342 214.755104,425.393342 Z" id="Shape"></path>
            <path d="M330.27048,0 L141.782841,0 C137.943771,0 134.211343,1.60665243 131.332041,4.46292341 C127.919535,7.79523955 126,12.6151968 126,17.613671 L126,131.447971 C126,141.147391 133.091614,149.002136 141.782841,149.002136 L246.344159,149.002136 C246.4508,149.002136 246.50412,149.061642 246.557441,149.061642 C246.770722,149.061642 246.930683,149.061642 247.143965,149.121147 C247.250606,149.121147 247.357247,149.186604 247.463888,149.186604 C247.623849,149.246109 247.78381,149.305615 247.943771,149.35917 C248.050412,149.424626 248.157053,149.484132 248.263694,149.537687 C248.423655,149.597193 248.583616,149.716204 248.690257,149.835215 C248.80223,149.900671 248.903539,149.960177 249.015511,150.073238 C249.122152,150.132743 249.228793,150.1982 249.282113,150.31126 L292.898206,195 L292.898206,153.88755 C292.898206,151.209796 294.871062,149.008087 297.27048,149.008087 L330.27048,149.008087 C338.967038,149.008087 346,141.153341 346,131.453921 L346,17.613671 C346,7.91425084 338.967038,0 330.27048,0 Z M221.768783,76.5837656 C221.768783,78.7854745 221.448861,80.8681721 220.915657,82.8913641 L249.335434,100.624046 C253.014542,96.0361611 258.293262,93.1858407 264.211827,93.1858407 C275.195831,93.1858407 284.15366,103.123283 284.15366,115.440952 C284.15366,127.699115 275.190499,137.690113 264.211827,137.690113 C253.233156,137.690113 244.269995,127.693164 244.269995,115.440952 C244.269995,113.239243 244.536597,111.09704 245.069801,109.073848 L216.650024,91.3411657 C212.970916,95.929051 207.692196,98.8448276 201.826951,98.8448276 C190.789627,98.8448276 181.885119,88.8419286 181.885119,76.5897162 C181.885119,64.2720476 190.789627,54.3346048 201.826951,54.3346048 C207.692196,54.3346048 212.970916,57.1908758 216.650024,61.7728105 L245.069801,44.0460787 C244.536597,42.0169362 244.269995,39.9401892 244.269995,37.6789747 C244.269995,25.4148612 253.227824,15.4833689 264.211827,15.4833689 C275.195831,15.4833689 284.15366,25.4208117 284.15366,37.6789747 C284.15366,49.9966433 275.190499,59.9340861 264.211827,59.9340861 C258.293262,59.9340861 253.014542,57.0778151 249.335434,52.4958804 L220.915657,70.2226121 C221.448861,72.2398535 221.768783,74.3820568 221.768783,76.5837656 Z" id="Shape"></path>
            <path d="M355.061657,139.011921 C351.90524,150.044371 342.655334,158.144371 331.682774,158.144371 L302.959382,158.144371 L302.900533,205.528477 C302.900533,205.653642 302.847035,205.766887 302.847035,205.82649 C302.847035,206.005298 302.847035,206.190066 302.793536,206.362914 C302.793536,206.541722 302.740038,206.666887 302.740038,206.839735 C302.681189,206.964901 302.627691,207.143709 302.579542,207.316556 C302.526043,207.441722 302.467195,207.61457 302.419046,207.733775 C302.312049,207.85298 302.25855,208.031788 302.205052,208.150993 C302.098055,208.270199 301.991057,208.449007 301.937559,208.562252 C301.825212,208.627815 301.825212,208.74106 301.723564,208.800662 C301.723564,208.866225 301.670066,208.866225 301.670066,208.866225 C301.50957,209.039073 301.402573,209.164238 301.242077,209.277483 C301.12973,209.402649 301.081581,209.456291 301.028083,209.515894 C300.814088,209.64106 300.600094,209.754305 300.439598,209.87947 C300.3861,209.939073 300.332601,209.998675 300.225604,209.998675 C299.690618,210.237086 299.155632,210.415894 298.518999,210.415894 C298.246156,210.415894 297.978663,210.356291 297.663022,210.290728 C297.609523,210.290728 297.502526,210.231126 297.395529,210.171523 C297.235033,210.111921 297.069187,210.111921 296.908692,210.046358 C296.753546,209.986755 296.641199,209.927152 296.539551,209.807947 C296.427204,209.748344 296.272058,209.688742 296.165061,209.569536 C296.058064,209.509934 295.951067,209.396689 295.84407,209.331126 C295.731723,209.211921 295.630075,209.158278 295.571227,209.092715 L245.764041,158.13245 L142.565265,158.13245 C131.598055,158.13245 122.2893,150.03245 119.132884,139 L20,139 L20,391 L361,391 L361,139.011921 L355.061657,139.011921 Z M238.761076,347.621192 C238.761076,359.064901 230.468795,368.303311 220.250565,368.303311 L67.512096,368.303311 C57.2938657,368.303311 48.948086,359.064901 48.948086,347.621192 L48.948086,234.793377 C48.948086,228.707947 51.3020238,223.290066 55.046925,219.475497 C55.1539222,219.356291 55.3144179,219.177483 55.4749137,219.064238 C58.684829,215.95894 62.9112174,214.117219 67.512096,214.117219 L220.197066,214.117219 C224.851443,214.117219 229.024333,216.018543 232.287747,219.123841 L232.608739,219.481457 C236.407138,223.236424 238.761076,228.719868 238.761076,234.799338 L238.761076,347.621192 Z M258.550204,233.899338 L280.859115,233.899338 C283.266552,233.899338 285.245999,236.104636 285.245999,238.786755 C285.245999,241.468874 283.266552,243.61457 280.859115,243.61457 L258.550204,243.61457 C256.148117,243.61457 254.16867,241.474834 254.16867,238.786755 C254.16867,236.098675 256.148117,233.899338 258.550204,233.899338 Z M258.550204,260.124503 L298.620646,260.124503 C301.028083,260.124503 302.959382,262.329801 302.959382,265.00596 C302.959382,267.688079 301.033433,269.893377 298.620646,269.893377 L258.550204,269.893377 C256.148117,269.893377 254.16867,267.688079 254.16867,265.00596 C254.16867,262.329801 256.148117,260.124503 258.550204,260.124503 Z M280.859115,348.515232 L258.550204,348.515232 C256.148117,348.515232 254.16867,346.369536 254.16867,343.681457 C254.16867,340.993377 256.148117,338.79404 258.550204,338.79404 L280.859115,338.79404 C283.266552,338.79404 285.245999,340.999338 285.245999,343.681457 C285.245999,346.363576 283.266552,348.515232 280.859115,348.515232 Z M298.625996,322.290066 L258.555554,322.290066 C256.153467,322.290066 254.174019,320.144371 254.174019,317.462252 C254.174019,314.780132 256.153467,312.574834 258.555554,312.574834 L298.625996,312.574834 C301.033433,312.574834 302.964732,314.780132 302.964732,317.462252 C302.959382,320.144371 301.033433,322.290066 298.625996,322.290066 Z M319.918434,296.064901 L258.550204,296.064901 C256.148117,296.064901 254.16867,293.925166 254.16867,291.237086 C254.16867,288.549007 256.148117,286.349669 258.550204,286.349669 L319.918434,286.349669 C322.320521,286.349669 324.25182,288.554967 324.25182,291.237086 C324.25182,293.919205 322.320521,296.064901 319.918434,296.064901 Z" id="Shape"></path>
            <path d="M495.782219,261 L474.217781,261 C471.88663,261 470,263.23652 470,266 C470,268.757353 471.88663,271 474.217781,271 L495.782219,271 C498.11337,271 500,268.757353 500,266 C500,263.242647 498.11337,261 495.782219,261 Z" id="Shape"></path>
            <path d="M495.782219,236 L474.217781,236 C471.88663,236 470,238.242647 470,241 C470,243.76348 471.88663,246 474.217781,246 L495.782219,246 C498.11337,246 500,243.76348 500,241 C500,238.23652 498.11337,236 495.782219,236 Z" id="Shape"></path>
            <path d="M495.782219,210 L474.217781,210 C471.88663,210 470,212.23652 470,215 C470,217.76348 471.88663,220 474.217781,220 L495.782219,220 C498.11337,220 500,217.76348 500,215 C500,212.23652 498.11337,210 495.782219,210 Z" id="Shape"></path>
            <path d="M474.226662,193 L495.783672,193 C498.11402,193 500,190.76348 500,188 C500,185.23652 498.11402,183 495.783672,183 L474.226662,183 C471.896314,183 470,185.23652 470,188 C470,190.751225 471.896314,193 474.226662,193 Z" id="Shape"></path>
            <path d="M495.782219,341 L474.217781,341 C471.88663,341 470,343.230392 470,346 C470,348.757353 471.88663,351 474.217781,351 L495.782219,351 C498.11337,351 500,348.757353 500,346 C500,343.23652 498.11337,341 495.782219,341 Z" id="Shape"></path>
            <path d="M495.782219,314 L474.217781,314 C471.88663,314 470,316.242647 470,319.006127 C470,321.757353 471.88663,324 474.217781,324 L495.782219,324 C498.11337,324 500,321.757353 500,319.006127 C500,316.242647 498.11337,314 495.782219,314 Z" id="Shape"></path>
            <path d="M495.782219,288 L474.217781,288 C471.88663,288 470,290.242647 470,293 C470,295.76348 471.88663,298 474.217781,298 L495.782219,298 C498.11337,298 500,295.76348 500,293 C500,290.242647 498.11337,288 495.782219,288 Z" id="Shape"></path>
            <path d="M276,37.4732843 C276,44.4193778 270.870071,50 264.527316,50 C258.184561,50 253,44.4193778 253,37.4732843 C253,30.586559 258.190024,25 264.527316,25 C270.864608,25 276,30.586559 276,37.4732843 Z" id="Shape"></path>
            <path d="M214,77.5296912 C214,84.4180523 208.864608,90 202.527316,90 C196.135392,90 191,84.4239905 191,77.5296912 C191,70.5819477 196.135392,65 202.527316,65 C208.870071,65 214,70.5819477 214,77.5296912 Z" id="Shape"></path>
            <path d="M276,115.532653 C276,122.413441 270.870071,128 264.527316,128 C258.184561,128 253,122.419378 253,115.532653 C253,113.336025 253.551781,111.252197 254.425891,109.471147 C254.480523,109.471147 254.480523,109.471147 254.480523,109.411779 C256.447268,105.606269 260.216865,103 264.532779,103 C270.870071,103 276,108.580622 276,115.532653 Z" id="Shape"></path>
            <path d="M220,225.060194 L142.973217,287 L66,225.060194 C66.1606957,225.060194 66.3213913,225 66.5356522,225 L219.464348,225 C219.619687,225 219.785739,225.060194 220,225.060194 Z" id="Shape"></path>
            <path d="M229,235.316105 L229,347.190586 C229,353.156437 224.622595,358 219.230912,358 L66.8224705,358 C61.4307883,358 57,353.156437 57,347.190586 L57,235.316105 C57,233.366867 57.4804469,231.594832 58.2811918,230 L140.490999,295.151823 C140.651148,295.269958 140.811297,295.388094 141.024829,295.50623 C141.024829,295.50623 141.024829,295.565298 141.078212,295.565298 C141.345127,295.68934 141.612042,295.801569 141.93234,295.925611 L142.092489,295.925611 C142.412787,296.043747 142.733085,296.043747 143,296.043747 C143.320298,296.043747 143.587213,296.043747 143.907511,295.925611 L144.121043,295.925611 C144.387958,295.801569 144.654873,295.68934 144.975171,295.565298 C144.975171,295.565298 144.975171,295.50623 145.028554,295.50623 C145.188703,295.388094 145.348852,295.269958 145.562384,295.151823 L227.772191,230 C228.572936,231.594832 229,233.366867 229,235.316105 Z" id="Shape"></path>
        </g>
    </g>
</svg>