<svg xmlns="http://www.w3.org/2000/svg" xmlns:xlink="http://www.w3.org/1999/xlink" version="1.1" x="0px" y="0px" viewBox="0 0 100 125" enable-background="new 0 0 100 100" xml:space="preserve"><path d="M53.43,50.093c-0.464-0.463-0.887-0.741-1.28-0.912c-0.394-0.169-0.766-0.239-1.176-0.24c-0.5-0.001-1.061,0.116-1.68,0.344  c-0.505,0.186-1.05,0.454-1.609,0.756l5.557,5.557c0.257-0.343,0.489-0.682,0.671-1.009c0.44-0.788,0.644-1.501,0.643-2.122  c-0.001-0.391-0.074-0.755-0.244-1.141C54.142,50.941,53.866,50.53,53.43,50.093z"/><path d="M36.803,45.489c-0.289,0.638-0.396,1.205-0.397,1.722c-0.004,1.051,0.475,1.962,1.053,2.539  c0.371,0.369,0.703,0.585,1.012,0.718c0.31,0.132,0.604,0.188,0.941,0.188c0.443,0.002,0.966-0.11,1.561-0.337  c0.565-0.214,1.189-0.534,1.843-0.905l-5.208-5.209C37.253,44.657,36.985,45.088,36.803,45.489z"/><path d="M89.712,26.581l-8.201-0.002l0.817-13.349l-34.648,2.121L8.789,54.242L41.317,86.77l38.891-38.892l1.12-18.3l8.384,0.002  c0.829,0,1.5-0.671,1.5-1.5C91.211,27.252,90.54,26.581,89.712,26.581z M56.167,58.521c0.586,0.586,0.586,1.535,0,2.121  c-0.585,0.586-1.535,0.586-2.121,0l-0.75-0.75c-1.618,1.345-3.419,2.07-5.206,2.071c-1.713,0.007-3.359-0.69-4.594-1.935v0.001  c-0.586-0.586-0.586-1.536-0.001-2.122s1.535-0.586,2.121-0.001c0.73,0.72,1.543,1.05,2.474,1.057  c0.902,0.001,1.966-0.353,3.071-1.206l-6.151-6.15c-0.699,0.416-1.417,0.825-2.161,1.173c-1.06,0.489-2.194,0.873-3.437,0.876  c-0.7,0.002-1.427-0.131-2.123-0.431c-0.697-0.298-1.353-0.755-1.952-1.354c-1.075-1.077-1.927-2.701-1.931-4.66  c-0.001-0.948,0.208-1.958,0.666-2.964c0.333-0.731,0.799-1.46,1.399-2.177l-0.705-0.705c-0.586-0.586-0.586-1.535,0-2.121  c0.585-0.586,1.535-0.586,2.121,0L37.644,40c0.627-0.486,1.259-0.897,1.897-1.215c1.128-0.562,2.279-0.856,3.402-0.856  c1.695-0.008,3.278,0.7,4.449,1.884c0.586,0.586,0.586,1.535,0.001,2.122c-0.585,0.586-1.535,0.586-2.121,0.001  c-0.7-0.686-1.434-0.998-2.329-1.007c-0.597,0.001-1.285,0.155-2.067,0.543c-0.347,0.173-0.713,0.4-1.09,0.67l5.695,5.694  c0.628-0.364,1.272-0.721,1.945-1.026c1.092-0.49,2.269-0.866,3.548-0.869c0.779-0.001,1.589,0.149,2.368,0.488  c0.78,0.337,1.521,0.854,2.208,1.543c0.658,0.657,1.166,1.374,1.504,2.138c0.339,0.762,0.502,1.567,0.501,2.356  c-0.001,1.272-0.406,2.478-1.023,3.585c-0.326,0.583-0.716,1.143-1.15,1.686L56.167,58.521z M72.074,32.675  c-1.265,1.267-2.938,1.906-4.596,1.904c-1.659,0.002-3.331-0.638-4.596-1.904c-1.266-1.266-1.906-2.938-1.904-4.596  c-0.002-1.658,0.637-3.331,1.904-4.596c1.266-1.268,2.938-1.906,4.598-1.904c1.658-0.002,3.33,0.637,4.595,1.903  c0.881,0.881,1.452,1.961,1.721,3.095l-3.171-0.001c-0.167-0.349-0.381-0.681-0.671-0.973c-0.688-0.687-1.574-1.023-2.474-1.024  c-0.901,0.001-1.789,0.339-2.477,1.025c-0.686,0.688-1.023,1.573-1.024,2.475c0.001,0.9,0.339,1.787,1.025,2.475  c0.689,0.688,1.575,1.024,2.475,1.025c0.9-0.001,1.787-0.339,2.475-1.025c0.292-0.293,0.508-0.627,0.675-0.978l3.168,0.001  C73.527,30.712,72.957,31.793,72.074,32.675z"/><text x="0" y="115" fill="#000000" font-size="5px" font-weight="bold" font-family="'Helvetica Neue', Helvetica, Arial-Unicode, Arial, Sans-serif">Created by Tomas Knopp</text><text x="0" y="120" fill="#000000" font-size="5px" font-weight="bold" font-family="'Helvetica Neue', Helvetica, Arial-Unicode, Arial, Sans-serif">from the Noun Project</text></svg>